<svg xmlns="http://www.w3.org/2000/svg" width="35" height="34" fill="none" viewBox="0 0 35 34"><path fill="#CFCEFF" fill-opacity=".3" d="M7.53 28.727c2.598-2.028 5.26-3.929 7.92-5.893-.76 3.105-1.584 6.146-2.217 9.251-.19.95 1.204 1.141 1.837 1.014.887-.126 1.838-.697 2.091-1.647.697-3.105 1.458-6.147 2.218-9.189 2.091 3.422 4.12 6.78 6.21 10.203.507.887 1.711 1.204 2.662.95.824-.253 1.52-1.14 1.014-1.964L22.8 20.806c2.472.19 4.88.38 7.351.443.95.064 2.091-.633 2.345-1.584.253-1.014-.57-1.71-1.521-1.71-2.598-.064-5.196-.254-7.794-.508a246.334 246.334 0 0 1 9.505-6.273c.633-.38 1.647-1.33 1.394-2.218-.254-.887-1.458-.444-1.965-.127a256.201 256.201 0 0 0-11.026 7.35c1.331-4.815 2.788-9.568 4.31-14.32.696-2.028-3.232-1.648-3.74-.127a239.171 239.171 0 0 0-3.485 11.47c-.95-1.585-1.9-3.105-2.851-4.69-.507-.887-1.711-1.204-2.662-.95-.823.253-1.52 1.14-1.014 1.964l4.373 7.224c-4.373-.57-8.745-1.267-13.117-2.154-1.014-.19-2.155.19-2.598 1.14-.444.824-.064 1.901.887 2.091 4.689 1.014 9.505 1.775 14.258 2.345-3.106 2.218-6.21 4.5-9.252 6.844-.507.38-1.331 1.52-.824 2.155.444.697 1.648-.064 2.154-.444Z"/></svg>