<svg xmlns="http://www.w3.org/2000/svg" width="82" height="82" fill="none" viewBox="0 0 82 82"><g filter="url(#filter0_d_69_1949)"><rect width="77.71" height="77.71" x="2.019" y="1.235" fill="#fff" rx="38.855" shape-rendering="crispEdges"/><path fill="#5956E9" d="M65.297 17.516a2.31 2.31 0 0 1-.685 1.561L45.575 38.726a2.575 2.575 0 0 0-.758-1.826l-.703-.667a2.492 2.492 0 0 0-1.826-.712l19.083-19.594a2.286 2.286 0 0 1 2.49-.542c.28.111.536.277.751.487a2.309 2.309 0 0 1 .685 1.644Z"/><path fill="#8D8BFF" d="M35.112 58.411c.9-1.56 1.959-3.022 3.159-4.364 1.826-2.073 2.346-1.9 2.995-2.95 1.515-2.456 1.14-7.048-1.89-9.778-2.794-2.52-7.022-2.694-9.35-1.16-1.04.694-.858 1.16-2.867 3.077a25.134 25.134 0 0 1-4.273 3.232 28.713 28.713 0 0 1-6.391 3.004l.913.913a9.962 9.962 0 0 0 3.652-.274 9.608 9.608 0 0 0 2.3-.913 5.478 5.478 0 0 1-1.825 2.392 5.386 5.386 0 0 1-1.954.868l4.875 4.73 4.785 4.802c.137-.71.413-1.387.812-1.99a5.524 5.524 0 0 1 2.338-1.927c-.403.73-.71 1.51-.913 2.32a9.834 9.834 0 0 0-.174 3.651l.913.913a29.344 29.344 0 0 1 2.895-6.546Z"/><path fill="#fff" d="M25.826 51.69s-2.483 2.557-4.218 2.84l4.218-2.84ZM31.469 52.239s-5.478 4.154-5.66 6.391l5.66-6.391Z"/><path fill="#8D8BFF" d="M45.575 38.726a2.557 2.557 0 0 1-.712 1.725l-1.68 1.708a2.484 2.484 0 0 1-3.533.055l-.694-.676a2.51 2.51 0 0 1-.055-3.543l1.671-1.716a2.5 2.5 0 0 1 3.543-.046l.703.667a2.574 2.574 0 0 1 .758 1.826ZM36.171 34.37l-2.237-1.205-2.346.968.456-2.502-1.652-1.935 2.52-.338 1.333-2.164 1.104 2.283 2.466.602-1.836 1.753.192 2.538ZM25.826 37.74a1.69 1.69 0 1 0 0-3.379 1.69 1.69 0 0 0 0 3.378ZM48.113 47.856a1.46 1.46 0 1 0 0-2.922 1.46 1.46 0 0 0 0 2.922Z"/><g style="mix-blend-mode:overlay"><path fill="#AEACFF" d="M24.329 54.466a5.478 5.478 0 0 0 1.826-2.392c-.72.405-1.49.712-2.292.913a9.868 9.868 0 0 1-3.533.274l1.25 1.214.813.794a5.23 5.23 0 0 0 1.936-.803Z"/></g><g style="mix-blend-mode:overlay"><path fill="#AEACFF" d="M38.006 41.738c.024-.056.051-.111.082-.164a4.82 4.82 0 0 1-1.315-1.826 7.762 7.762 0 0 0-6.747.392c-1.04.694-.858 1.16-2.867 3.077a25.14 25.14 0 0 1-4.273 3.25 28.718 28.718 0 0 1-6.391 3.005l.913.913a9.96 9.96 0 0 0 3.652-.274 9.603 9.603 0 0 0 2.3-.913 5.624 5.624 0 0 1-1.752 2.3 28.814 28.814 0 0 0 4.163-2.145 26.189 26.189 0 0 0 4.282-3.278c2-1.908 1.826-2.383 2.858-3.068a7.204 7.204 0 0 1 4.94-.867c.04-.138.092-.273.155-.402Z"/></g><g style="mix-blend-mode:overlay"><path fill="#AEACFF" d="m35.35 29.476-1.105-2.282-1.333 2.163-2.52.338 1.652 1.936-.456 2.502 2.346-.968 2.237 1.205-.192-2.538 1.836-1.753-2.466-.603Z"/></g><g style="mix-blend-mode:overlay"><path fill="#AEACFF" d="M25.826 37.739a1.69 1.69 0 1 0 0-3.378 1.69 1.69 0 0 0 0 3.378Z"/></g><g style="mix-blend-mode:overlay"><path fill="#AEACFF" d="M48.113 47.856a1.46 1.46 0 1 0 0-2.922 1.46 1.46 0 0 0 0 2.922Z"/></g></g><defs><filter id="filter0_d_69_1949" width="80.818" height="80.818" x=".464" y=".458" color-interpolation-filters="sRGB" filterUnits="userSpaceOnUse"><feFlood flood-opacity="0" result="BackgroundImageFix"/><feColorMatrix in="SourceAlpha" result="hardAlpha" type="matrix" values="0 0 0 0 0 0 0 0 0 0 0 0 0 0 0 0 0 0 127 0"/><feOffset dy=".777"/><feGaussianBlur stdDeviation=".777"/><feComposite in2="hardAlpha" operator="out"/><feColorMatrix type="matrix" values="0 0 0 0 0.219608 0 0 0 0 0.254902 0 0 0 0 0.290196 0 0 0 0.15 0"/><feBlend in2="BackgroundImageFix" mode="normal" result="effect1_dropShadow_69_1949"/><feBlend in="SourceGraphic" in2="effect1_dropShadow_69_1949" mode="normal" result="shape"/></filter></defs></svg>