<svg xmlns="http://www.w3.org/2000/svg" width="57" height="57" fill="none" viewBox="0 0 57 57"><rect width="56" height="56" x=".979" y=".059" fill="#5956E9" rx="28"/><path fill="#fff" fill-rule="evenodd" d="M30.23 25.25c0 .86.7 1.56 1.56 1.56h5.38c.86 0 1.56-.7 1.56-1.56 0-.25-.07-.51-.17-.7l-2.68-5.36c-.25-.54-.79-.88-1.4-.88-.61 0-1.15.33-1.39.86l-2.68 5.36c-.12.22-.18.47-.18.72Zm1.51-.02 2.79-5.38 2.64 5.46h-5.38l-.05-.08Zm-8.26 1.58v.01c1.51 0 2.34 0 3.01-.46.31-.2.58-.47.77-.76.47-.69.47-1.52.47-3.03 0-1.51 0-2.34-.46-3.01-.2-.31-.47-.58-.76-.77-.69-.47-1.52-.47-3.03-.47-1.51 0-2.34 0-3.01.46-.31.2-.58.47-.77.76-.47.69-.47 1.52-.47 3.03 0 1.51 0 2.34.46 3.01.2.31.46.57.77.77.69.46 1.52.46 3.02.46Zm0-7c1.18 0 1.88 0 2.21.22.12.08.24.19.33.34.21.31.21 1.01.21 2.19s0 1.88-.22 2.21c-.08.12-.19.24-.34.33-.31.21-1.02.21-2.19.21s-1.88 0-2.19-.22h-.02c-.12-.08-.24-.19-.33-.34-.21-.31-.21-1.01-.21-2.19s0-1.88.22-2.21c.08-.12.19-.24.34-.33.31-.21 1.02-.21 2.19-.21Zm0 18a4.26 4.26 0 0 1-4.25-4.25 4.26 4.26 0 0 1 4.25-4.25 4.26 4.26 0 0 1 4.25 4.25 4.26 4.26 0 0 1-4.25 4.25Zm0-7c-1.52 0-2.75 1.23-2.75 2.75s1.23 2.75 2.75 2.75 2.75-1.23 2.75-2.75-1.23-2.75-2.75-2.75Zm8.5 6.5h2.501c1.57 0 2.43 0 3.09-.66.66-.66.66-1.52.66-3.09v-2.5c0-.41-.34-.75-.75-.75s-.75.34-.75.75v2.502c0 .46 0 .848-.02 1.167l-4.7-4.7a.754.754 0 0 0-1.06 0c-.29.29-.29.77 0 1.06l4.7 4.7c-.32.02-.71.02-1.17.02h-2.5c-.41 0-.75.34-.75.75s.34.75.75.75Z" clip-rule="evenodd"/></svg>