<svg xmlns="http://www.w3.org/2000/svg" width="57" height="57" fill="none" viewBox="0 0 57 57"><rect width="56" height="56" x=".488" y=".059" fill="#5956E9" rx="28"/><path stroke="#fff" stroke-linecap="round" stroke-linejoin="round" stroke-width="1.5" d="M25.488 36.06c-3.77-.869-6-4.324-6-7.49 0-3.767 3.37-7.488 5.736-9.636a3.367 3.367 0 0 1 4.528 0c1.507 1.368 3.31 3.375 4.487 5.625"/><path stroke="#fff" stroke-linecap="round" stroke-linejoin="round" stroke-width="1.5" d="M33.488 31.56c-1.5 1-4 3-6 6.5m2-3c-2.664-5.86 2.835-7.765 6.925-7.985.494-.027.74-.04.918.131.177.17.166.415.146.902-.169 4.053-1.994 9.558-7.989 6.951Z"/></svg>