<svg xmlns="http://www.w3.org/2000/svg" width="57" height="57" fill="none" viewBox="0 0 57 57"><rect width="56" height="56" x=".979" y=".059" fill="#5956E9" rx="28"/><path stroke="#fff" stroke-linecap="round" stroke-linejoin="round" stroke-width="1.5" d="M18.98 37.06c1.332.621 3.082 1 5 1 1.916 0 3.667-.379 5-1 1.331-.623 3.082-1 5-1 1.916 0 3.667.377 5 1m-10-3c-1.333.621-3.084 1-5 1-1.067 0-2.08-.118-3-.328-.592-.136-.888-.203-1.242-.484a2.401 2.401 0 0 1-.565-.709c-.194-.407-.194-.803-.194-1.594V21.173c0-.985 1.04-1.66 2-1.44.92.21 1.934.326 3 .326 1.917 0 3.668-.378 5-1 1.332-.622 3.083-1 5-1 1.066 0 2.08.117 3 .327.591.136.887.204 1.241.484.202.16.454.476.565.71.194.407.194.802.194 1.593v10.772c0 .985-1.04 1.661-2 1.441-.92-.21-1.934-.327-3-.327-1.917 0-3.668.378-5 1Z"/><path stroke="#fff" stroke-linecap="round" stroke-linejoin="round" stroke-width="1.5" d="M22.48 27.56v.008m13-2.017v.01m-4 .998a2.5 2.5 0 1 1-5 0 2.5 2.5 0 0 1 5 0Z"/></svg>