<svg xmlns="http://www.w3.org/2000/svg" width="73" height="231" fill="none" viewBox="0 0 73 231"><path fill="#ECEBFF" d="M222.456 54.126c.637 1.104 1.258 2.22 1.862 3.345a4.106 4.106 0 0 1-1.862-3.345ZM199.942 25.74a124.097 124.097 0 0 1 5.573 5.572 4.11 4.11 0 1 1-5.573-5.573ZM173.783 6.936c1.126.604 2.241 1.225 3.346 1.863a4.11 4.11 0 0 1-3.346-1.863ZM53.975 8.799c1.104-.638 2.22-1.259 3.345-1.863A4.108 4.108 0 0 1 53.975 8.8ZM25.589 31.312a124.19 124.19 0 0 1 5.572-5.573 4.112 4.112 0 1 1-5.573 5.573ZM6.786 57.471a123.098 123.098 0 0 1 1.862-3.345 4.108 4.108 0 0 1-1.862 3.345ZM224.318 173.934a123.58 123.58 0 0 1-1.862 3.345 4.106 4.106 0 0 1 1.862-3.345ZM205.515 200.093a4.111 4.111 0 0 0-7.73 1.954c0 1.564.872 2.923 2.157 3.619a124.108 124.108 0 0 0 5.573-5.573ZM177.129 222.606a4.11 4.11 0 0 0-3.346 1.863 122.468 122.468 0 0 0 3.346-1.863ZM57.32 224.469a4.109 4.109 0 0 0-3.345-1.863c1.104.638 2.22 1.259 3.345 1.863ZM31.161 205.666a4.112 4.112 0 1 0-5.572-5.573 124.202 124.202 0 0 0 5.572 5.573ZM8.648 177.279a4.109 4.109 0 0 0-1.862-3.345 122.028 122.028 0 0 0 1.862 3.345ZM82.659 4.688a4.112 4.112 0 1 1-8.224 0 4.112 4.112 0 0 1 8.224 0ZM107.328 4.688a4.111 4.111 0 1 1-8.222.002 4.111 4.111 0 0 1 8.222-.002ZM131.998 4.688a4.112 4.112 0 1 1-8.223 0 4.112 4.112 0 0 1 8.223 0ZM156.668 4.688a4.112 4.112 0 1 1-8.223 0 4.112 4.112 0 0 1 8.223 0ZM57.989 29.358a4.112 4.112 0 1 1-8.224 0 4.112 4.112 0 0 1 8.224 0ZM82.659 29.358a4.112 4.112 0 1 1-8.224 0 4.112 4.112 0 0 1 8.224 0ZM107.328 29.358a4.11 4.11 0 1 1-8.223 0 4.112 4.112 0 1 1 8.223 0ZM131.998 29.358a4.112 4.112 0 1 1-8.223 0 4.112 4.112 0 0 1 8.223 0ZM156.668 29.358a4.112 4.112 0 1 1-8.223 0 4.112 4.112 0 0 1 8.223 0ZM181.338 29.358a4.112 4.112 0 1 1-8.224 0 4.112 4.112 0 0 1 8.224 0ZM33.319 54.028a4.112 4.112 0 1 1-8.223 0 4.112 4.112 0 0 1 8.223 0ZM57.989 54.028a4.112 4.112 0 1 1-8.224 0 4.112 4.112 0 0 1 8.224 0ZM82.659 54.028a4.112 4.112 0 1 1-8.224 0 4.112 4.112 0 0 1 8.224 0ZM107.328 54.028a4.11 4.11 0 1 1-8.222.001 4.11 4.11 0 0 1 8.222-.001ZM131.998 54.028a4.112 4.112 0 1 1-8.223 0 4.112 4.112 0 0 1 8.223 0ZM156.668 54.028a4.112 4.112 0 1 1-8.223 0 4.112 4.112 0 0 1 8.223 0ZM181.338 54.028a4.112 4.112 0 1 1-8.224 0 4.112 4.112 0 0 1 8.224 0ZM206.008 54.028a4.112 4.112 0 1 1-8.224 0 4.112 4.112 0 0 1 8.224 0ZM8.65 78.698a4.112 4.112 0 1 1-8.224 0 4.112 4.112 0 0 1 8.223 0ZM33.319 78.698a4.112 4.112 0 1 1-8.223 0 4.112 4.112 0 0 1 8.223 0ZM57.989 78.698a4.112 4.112 0 1 1-8.224 0 4.112 4.112 0 0 1 8.224 0ZM82.659 78.698a4.112 4.112 0 1 1-8.224 0 4.112 4.112 0 0 1 8.224 0ZM107.328 78.698a4.11 4.11 0 1 1-8.223 0 4.112 4.112 0 1 1 8.223 0ZM131.998 78.698a4.112 4.112 0 1 1-8.223 0 4.112 4.112 0 0 1 8.223 0ZM156.668 78.698a4.112 4.112 0 1 1-8.223 0 4.112 4.112 0 0 1 8.223 0ZM181.338 78.698a4.112 4.112 0 1 1-8.224 0 4.112 4.112 0 0 1 8.224 0ZM206.008 78.698a4.112 4.112 0 1 1-8.224 0 4.112 4.112 0 0 1 8.224 0ZM230.678 78.698a4.112 4.112 0 1 1-8.224 0 4.112 4.112 0 0 1 8.224 0ZM8.65 103.368a4.111 4.111 0 1 1-8.223 0 4.111 4.111 0 0 1 8.222 0ZM33.319 103.368a4.11 4.11 0 1 1-8.223 0 4.112 4.112 0 1 1 8.223 0ZM57.989 103.368a4.111 4.111 0 1 1-8.222 0 4.111 4.111 0 0 1 8.222 0ZM82.659 103.368a4.11 4.11 0 1 1-8.224 0 4.112 4.112 0 1 1 8.224 0ZM107.328 103.368a4.111 4.111 0 1 1-8.224 0 4.111 4.111 0 0 1 8.224 0ZM131.998 103.368a4.11 4.11 0 1 1-8.222 0 4.11 4.11 0 0 1 8.222 0ZM156.668 103.368a4.11 4.11 0 1 1-8.222 0 4.11 4.11 0 0 1 8.222 0ZM181.338 103.368a4.111 4.111 0 1 1-8.222 0 4.111 4.111 0 0 1 8.222 0ZM206.008 103.368a4.111 4.111 0 1 1-8.222 0 4.111 4.111 0 0 1 8.222 0ZM230.678 103.368a4.111 4.111 0 0 1-4.112 4.111 4.111 4.111 0 1 1 0-8.223 4.112 4.112 0 0 1 4.112 4.112ZM8.65 128.038a4.112 4.112 0 1 1-8.224-.001 4.112 4.112 0 0 1 8.223.001ZM33.319 128.038a4.112 4.112 0 1 1-8.223-.001 4.112 4.112 0 0 1 8.223.001ZM57.989 128.038a4.112 4.112 0 1 1-8.224-.001 4.112 4.112 0 0 1 8.224.001ZM82.659 128.038a4.112 4.112 0 1 1-8.224-.001 4.112 4.112 0 0 1 8.224.001ZM107.328 128.038a4.11 4.11 0 1 1-8.222 0 4.11 4.11 0 0 1 8.222 0ZM131.998 128.038a4.112 4.112 0 1 1-8.223-.001 4.112 4.112 0 0 1 8.223.001ZM156.668 128.038a4.112 4.112 0 1 1-8.223-.001 4.112 4.112 0 0 1 8.223.001ZM181.338 128.038a4.112 4.112 0 1 1-8.224-.002 4.112 4.112 0 0 1 8.224.002ZM206.008 128.038a4.112 4.112 0 1 1-8.224-.002 4.112 4.112 0 0 1 8.224.002ZM230.678 128.038a4.112 4.112 0 1 1-8.224-.002 4.112 4.112 0 0 1 8.224.002ZM8.65 152.707a4.112 4.112 0 1 1-8.225 0 4.112 4.112 0 0 1 8.224 0ZM33.319 152.707a4.112 4.112 0 1 1-8.224 0 4.112 4.112 0 0 1 8.224 0ZM57.989 152.707a4.112 4.112 0 1 1-8.224 0 4.112 4.112 0 0 1 8.224 0ZM82.659 152.707a4.112 4.112 0 1 1-8.224 0 4.112 4.112 0 0 1 8.224 0ZM107.328 152.707a4.111 4.111 0 1 1-8.222.002 4.111 4.111 0 0 1 8.222-.002ZM131.998 152.707a4.112 4.112 0 1 1-8.224 0 4.112 4.112 0 0 1 8.224 0ZM156.668 152.707a4.112 4.112 0 1 1-8.224 0 4.112 4.112 0 0 1 8.224 0ZM181.338 152.707a4.112 4.112 0 1 1-8.224 0 4.112 4.112 0 0 1 8.224 0ZM206.008 152.707a4.112 4.112 0 1 1-8.224 0 4.112 4.112 0 0 1 8.224 0ZM230.678 152.707a4.112 4.112 0 1 1-8.224 0 4.112 4.112 0 0 1 8.224 0ZM33.319 177.377a4.112 4.112 0 1 1-8.224 0 4.112 4.112 0 0 1 8.224 0ZM57.989 177.377a4.112 4.112 0 1 1-8.224 0 4.112 4.112 0 0 1 8.224 0ZM82.659 177.377a4.112 4.112 0 1 1-8.224 0 4.112 4.112 0 0 1 8.224 0ZM107.328 177.377a4.111 4.111 0 1 1-8.222.002 4.111 4.111 0 0 1 8.222-.002ZM131.998 177.377a4.112 4.112 0 1 1-8.224 0 4.112 4.112 0 0 1 8.224 0ZM156.668 177.377a4.112 4.112 0 1 1-8.224 0 4.112 4.112 0 0 1 8.224 0ZM181.338 177.377a4.112 4.112 0 1 1-8.224 0 4.112 4.112 0 0 1 8.224 0ZM206.008 177.377a4.112 4.112 0 1 1-8.224 0 4.112 4.112 0 0 1 8.224 0ZM57.989 202.047a4.112 4.112 0 1 1-8.224 0 4.112 4.112 0 0 1 8.224 0ZM82.659 202.047a4.112 4.112 0 1 1-8.224 0 4.112 4.112 0 0 1 8.224 0ZM107.328 202.047a4.111 4.111 0 1 1-8.223 0 4.112 4.112 0 1 1 8.223 0ZM131.998 202.047a4.112 4.112 0 1 1-8.224 0 4.112 4.112 0 0 1 8.224 0ZM156.668 202.047a4.112 4.112 0 1 1-8.224 0 4.112 4.112 0 0 1 8.224 0ZM181.338 202.047a4.112 4.112 0 1 1-8.224 0 4.112 4.112 0 0 1 8.224 0ZM82.659 226.717a4.112 4.112 0 1 1-8.224 0 4.112 4.112 0 0 1 8.224 0ZM107.328 226.717a4.111 4.111 0 1 1-8.223 0 4.112 4.112 0 1 1 8.223 0ZM131.998 226.717a4.112 4.112 0 1 1-8.224 0 4.112 4.112 0 0 1 8.224 0ZM156.668 226.717a4.112 4.112 0 1 1-8.224 0 4.112 4.112 0 0 1 8.224 0Z"/></svg>