<svg xmlns="http://www.w3.org/2000/svg" width="105" height="231" fill="none" viewBox="0 0 105 231"><path fill="#ECEBFF" d="M96.497 54.237c.637 1.104 1.258 2.22 1.862 3.345a4.108 4.108 0 0 1-1.862-3.345ZM73.983 25.85a124.086 124.086 0 0 1 5.573 5.573 4.112 4.112 0 1 1-5.572-5.572ZM47.824 7.047c1.126.604 2.241 1.225 3.346 1.863a4.108 4.108 0 0 1-3.346-1.863ZM-71.984 8.91c1.104-.638 2.22-1.259 3.345-1.863a4.108 4.108 0 0 1-3.345 1.863ZM-100.37 31.423a123.921 123.921 0 0 1 5.572-5.573 4.112 4.112 0 1 1-5.572 5.572ZM-119.173 57.582c.603-1.126 1.224-2.24 1.862-3.345a4.11 4.11 0 0 1-1.862 3.345ZM98.359 174.045a121.975 121.975 0 0 1-1.862 3.345 4.108 4.108 0 0 1 1.862-3.345ZM79.556 200.204a4.111 4.111 0 0 0-7.73 1.954c0 1.564.872 2.923 2.157 3.619a124.097 124.097 0 0 0 5.573-5.573ZM51.17 222.717a4.109 4.109 0 0 0-3.346 1.863 121.988 121.988 0 0 0 3.346-1.863ZM-68.639 224.58a4.109 4.109 0 0 0-3.345-1.863c1.104.638 2.22 1.259 3.345 1.863ZM-94.798 205.777a4.112 4.112 0 1 0-5.572-5.573 123.933 123.933 0 0 0 5.572 5.573ZM-117.311 177.39a4.11 4.11 0 0 0-1.862-3.345 118.35 118.35 0 0 0 1.862 3.345ZM-43.3 4.8a4.112 4.112 0 1 1-8.224 0 4.112 4.112 0 0 1 8.224 0ZM-18.63 4.8a4.112 4.112 0 1 1-8.224-.001 4.112 4.112 0 0 1 8.223 0ZM6.04 4.8a4.112 4.112 0 1 1-8.224 0 4.112 4.112 0 0 1 8.223 0ZM30.71 4.8a4.112 4.112 0 1 1-8.224-.001 4.112 4.112 0 0 1 8.223 0ZM-67.97 29.469a4.112 4.112 0 1 1-8.224 0 4.112 4.112 0 0 1 8.224 0ZM-43.3 29.469a4.112 4.112 0 1 1-8.224 0 4.112 4.112 0 0 1 8.224 0ZM-18.63 29.469a4.112 4.112 0 1 1-8.224 0 4.112 4.112 0 0 1 8.223 0ZM6.04 29.469a4.112 4.112 0 1 1-8.224 0 4.112 4.112 0 0 1 8.223 0ZM30.71 29.469a4.112 4.112 0 1 1-8.224 0 4.112 4.112 0 0 1 8.223 0ZM55.379 29.469a4.112 4.112 0 1 1-8.223 0 4.112 4.112 0 0 1 8.223 0ZM-92.64 54.139a4.112 4.112 0 1 1-8.223 0 4.112 4.112 0 0 1 8.223 0ZM-67.97 54.139a4.112 4.112 0 1 1-8.224 0 4.112 4.112 0 0 1 8.224 0ZM-43.3 54.139a4.112 4.112 0 1 1-8.224 0 4.112 4.112 0 0 1 8.224 0ZM-18.63 54.139a4.112 4.112 0 1 1-8.224 0 4.112 4.112 0 0 1 8.223 0ZM6.04 54.139a4.112 4.112 0 1 1-8.224 0 4.112 4.112 0 0 1 8.223 0ZM30.71 54.139a4.112 4.112 0 1 1-8.224 0 4.112 4.112 0 0 1 8.223 0ZM55.379 54.139a4.112 4.112 0 1 1-8.223 0 4.112 4.112 0 0 1 8.223 0ZM80.049 54.139a4.112 4.112 0 1 1-8.224 0 4.112 4.112 0 0 1 8.224 0ZM-117.31 78.809a4.112 4.112 0 1 1-8.224 0 4.112 4.112 0 0 1 8.224 0ZM-92.64 78.809a4.112 4.112 0 1 1-8.223 0 4.112 4.112 0 0 1 8.223 0ZM-67.97 78.809a4.112 4.112 0 1 1-8.224 0 4.112 4.112 0 0 1 8.224 0ZM-43.3 78.809a4.112 4.112 0 1 1-8.224 0 4.112 4.112 0 0 1 8.224 0ZM-18.63 78.809a4.112 4.112 0 1 1-8.224 0 4.112 4.112 0 0 1 8.223 0ZM6.04 78.809a4.112 4.112 0 1 1-8.224 0 4.112 4.112 0 0 1 8.223 0ZM30.71 78.809a4.112 4.112 0 1 1-8.224 0 4.112 4.112 0 0 1 8.223 0ZM55.379 78.809a4.112 4.112 0 1 1-8.223 0 4.112 4.112 0 0 1 8.223 0ZM80.049 78.809a4.112 4.112 0 1 1-8.223 0 4.112 4.112 0 0 1 8.223 0ZM104.719 78.809a4.112 4.112 0 1 1-8.224 0 4.112 4.112 0 0 1 8.224 0ZM-117.31 103.479a4.112 4.112 0 1 1-8.224-.002 4.112 4.112 0 0 1 8.224.002ZM-92.64 103.479a4.112 4.112 0 1 1-8.223-.001 4.112 4.112 0 0 1 8.223.001ZM-67.97 103.479a4.112 4.112 0 1 1-8.224-.001 4.112 4.112 0 0 1 8.224.001ZM-43.3 103.479a4.112 4.112 0 1 1-8.224-.001 4.112 4.112 0 0 1 8.224.001ZM-18.63 103.479a4.112 4.112 0 1 1-8.224-.001 4.112 4.112 0 0 1 8.223.001ZM6.04 103.479a4.112 4.112 0 1 1-8.224-.001 4.112 4.112 0 0 1 8.223.001ZM30.71 103.479a4.112 4.112 0 1 1-8.224-.001 4.112 4.112 0 0 1 8.223.001ZM55.379 103.479a4.112 4.112 0 1 1-8.223-.001 4.112 4.112 0 0 1 8.223.001ZM80.049 103.479a4.112 4.112 0 1 1-8.223-.001 4.112 4.112 0 0 1 8.223.001ZM104.719 103.479a4.112 4.112 0 1 1-8.224-.002 4.112 4.112 0 0 1 8.224.002ZM-117.31 128.148a4.112 4.112 0 1 1-8.224 0 4.112 4.112 0 0 1 8.224 0ZM-92.64 128.148a4.112 4.112 0 1 1-8.224 0 4.112 4.112 0 0 1 8.224 0ZM-67.97 128.148a4.112 4.112 0 1 1-8.224 0 4.112 4.112 0 0 1 8.224 0ZM-43.3 128.148a4.112 4.112 0 1 1-8.224 0 4.112 4.112 0 0 1 8.224 0ZM-18.63 128.148a4.112 4.112 0 1 1-8.224 0 4.112 4.112 0 0 1 8.223 0ZM6.04 128.148a4.112 4.112 0 1 1-8.224 0 4.112 4.112 0 0 1 8.223 0ZM30.71 128.148a4.112 4.112 0 1 1-8.225 0 4.112 4.112 0 0 1 8.224 0ZM55.379 128.148a4.112 4.112 0 1 1-8.224 0 4.112 4.112 0 0 1 8.224 0ZM80.049 128.148a4.112 4.112 0 1 1-8.224 0 4.112 4.112 0 0 1 8.224 0ZM104.719 128.148a4.112 4.112 0 1 1-8.224 0 4.112 4.112 0 0 1 8.224 0ZM-117.31 152.818a4.112 4.112 0 1 1-8.224 0 4.112 4.112 0 0 1 8.224 0ZM-92.64 152.818a4.112 4.112 0 1 1-8.224 0 4.112 4.112 0 0 1 8.224 0ZM-67.97 152.818a4.112 4.112 0 1 1-8.224 0 4.112 4.112 0 0 1 8.224 0ZM-43.3 152.818a4.112 4.112 0 1 1-8.224 0 4.112 4.112 0 0 1 8.224 0ZM-18.63 152.818a4.112 4.112 0 1 1-8.224 0 4.112 4.112 0 0 1 8.223 0ZM6.04 152.818a4.112 4.112 0 1 1-8.224 0 4.112 4.112 0 0 1 8.223 0ZM30.71 152.818a4.112 4.112 0 1 1-8.225 0 4.112 4.112 0 0 1 8.224 0ZM55.379 152.818a4.112 4.112 0 1 1-8.224 0 4.112 4.112 0 0 1 8.224 0ZM80.049 152.818a4.112 4.112 0 1 1-8.224 0 4.112 4.112 0 0 1 8.224 0ZM104.719 152.818a4.112 4.112 0 1 1-8.224 0 4.112 4.112 0 0 1 8.224 0ZM-92.64 177.488a4.112 4.112 0 1 1-8.224 0 4.112 4.112 0 0 1 8.224 0ZM-67.97 177.488a4.112 4.112 0 1 1-8.224 0 4.112 4.112 0 0 1 8.224 0ZM-43.3 177.488a4.112 4.112 0 1 1-8.224 0 4.112 4.112 0 0 1 8.224 0ZM-18.63 177.488a4.112 4.112 0 1 1-8.224 0 4.112 4.112 0 0 1 8.223 0ZM6.04 177.488a4.112 4.112 0 1 1-8.224 0 4.112 4.112 0 0 1 8.223 0ZM30.71 177.488a4.112 4.112 0 1 1-8.225 0 4.112 4.112 0 0 1 8.224 0ZM55.379 177.488a4.112 4.112 0 1 1-8.224 0 4.112 4.112 0 0 1 8.224 0ZM80.049 177.488a4.112 4.112 0 1 1-8.224 0 4.112 4.112 0 0 1 8.224 0ZM-67.97 202.158a4.112 4.112 0 1 1-8.224 0 4.112 4.112 0 0 1 8.224 0ZM-43.3 202.158a4.112 4.112 0 1 1-8.224 0 4.112 4.112 0 0 1 8.224 0ZM-18.63 202.158a4.112 4.112 0 1 1-8.224 0 4.112 4.112 0 0 1 8.223 0ZM6.04 202.158a4.112 4.112 0 1 1-8.224 0 4.112 4.112 0 0 1 8.223 0ZM30.71 202.158a4.112 4.112 0 1 1-8.225 0 4.112 4.112 0 0 1 8.224 0ZM55.379 202.158a4.112 4.112 0 1 1-8.224 0 4.112 4.112 0 0 1 8.224 0ZM-43.3 226.828a4.11 4.11 0 1 1-8.224 0 4.112 4.112 0 1 1 8.224 0ZM-18.63 226.828a4.111 4.111 0 1 1-8.223 0 4.111 4.111 0 0 1 8.223 0ZM6.04 226.828a4.111 4.111 0 1 1-8.223 0 4.111 4.111 0 0 1 8.222 0ZM30.71 226.828a4.111 4.111 0 1 1-8.223 0 4.111 4.111 0 0 1 8.222 0Z"/></svg>