<svg xmlns="http://www.w3.org/2000/svg" width="82" height="81" fill="none" viewBox="0 0 82 81"><g filter="url(#filter0_d_69_1891)"><rect width="77.123" height="77.123" x="2.487" y=".966" fill="#fff" rx="38.562" shape-rendering="crispEdges"/><path fill="#C6C3D8" d="M26.881 36.258h-4.359v28.335h4.36V36.258Z"/><path fill="#DAD7E5" d="M26.881 38.438v26.155h-2.18V40.618a2.18 2.18 0 0 1 2.18-2.18Z"/><path fill="#8D8BFF" d="M31.24 14.463H18.163a2.18 2.18 0 0 0-2.18 2.18v17.436a2.18 2.18 0 0 0 2.18 2.18H31.24a2.18 2.18 0 0 0 2.18-2.18V16.642a2.18 2.18 0 0 0-2.18-2.18Z"/><path fill="#AEACFF" d="M33.42 16.642c0 18.33-.11 17.437 0 17.437a14.167 14.167 0 0 1-14.168-14.167v-5.45H31.24a2.18 2.18 0 0 1 2.18 2.18Z"/><path fill="#DAD7E5" d="M20.343 30.81V19.912a1.09 1.09 0 0 1 1.09-1.09h3.814a3.814 3.814 0 0 1 0 7.629h-2.725v4.359a1.09 1.09 0 1 1-2.18 0Zm2.18-6.539h2.724a1.635 1.635 0 0 0 0-3.27h-2.725v3.27Z"/><path fill="#C6C3D8" d="M65.024 50.425c0 5.45.316 5.199-1.45 6.539-2.615 1.95-2.735 2.18-3.64 2.18-24.41 0-23.005.185-23.822-.436-4.501-3.368-3.782-1.984-3.782-8.283a2.18 2.18 0 0 1 2.18-2.18c30.72 0 28.574-.065 29.119.153a2.18 2.18 0 0 1 1.395 2.027Z"/><path fill="#DAD7E5" d="M65.023 50.425c0 5.45.316 5.21-1.45 6.54H44.318a8.718 8.718 0 0 1-8.718-8.72c0-.108-1.373 0 27.245 0a2.18 2.18 0 0 1 2.18 2.18Z"/><path fill="#8D8BFF" d="M63.629 48.398c-.567-.228 1.297-.152-29.12-.152-.268 0-.535.052-.784.152l2.964-9.274a4.359 4.359 0 0 1 4.142-2.866h15.692a4.36 4.36 0 0 1 4.141 2.866c2.627 8.196 1.962 6.169 2.965 9.274Z"/><path fill="#CFCEFF" d="M62.844 46.066H47.848a7.857 7.857 0 0 1-7.628-9.808c.109-.087-.72 0 16.347 0a4.358 4.358 0 0 1 4.097 2.866l2.18 6.942Z"/><path fill="#2B2A6F" d="M39.959 59.144v5.449h-6.54v-7.901c3.826 2.866 2.638 2.452 6.54 2.452Z"/><path fill="#141361" d="M39.959 60.234v4.359h-6.54v-6.811c3.826 2.866 2.638 2.452 6.54 2.452Z"/><path fill="#2B2A6F" d="M63.934 56.692v7.9h-6.539v-5.448c3.913 0 2.746.392 6.539-2.452Z"/><path fill="#141361" d="M63.934 57.782v6.81h-6.539v-4.358c3.913 0 2.746.392 6.539-2.452Z"/><path fill="#FC6" d="M43.228 53.695a2.18 2.18 0 0 1-2.18 2.18h-2.18a2.18 2.18 0 0 1 0-4.36h2.18a2.18 2.18 0 0 1 2.18 2.18Z"/><path fill="#FFDE76" d="M43.228 53.695c0 1.286-.393 1.09-3.27 1.09a2.18 2.18 0 0 1-2.18-2.18c0-1.286.393-1.09 3.27-1.09a2.18 2.18 0 0 1 2.18 2.18Z"/><path fill="#FC6" d="M60.664 53.695a2.18 2.18 0 0 1-2.18 2.18h-2.179a2.18 2.18 0 1 1 0-4.36h2.18a2.18 2.18 0 0 1 2.18 2.18Z"/><path fill="#FFDE76" d="M60.664 53.695c0 1.286-.392 1.09-3.269 1.09a2.18 2.18 0 0 1-2.18-2.18c0-1.286.393-1.09 3.27-1.09a2.18 2.18 0 0 1 2.18 2.18Z"/><path fill="#5956E9" d="M50.857 53.695h-4.36a1.09 1.09 0 0 1 0-2.18h4.36a1.09 1.09 0 1 1 0 2.18ZM50.857 56.964h-4.36a1.09 1.09 0 0 1 0-2.18h4.36a1.09 1.09 0 0 1 0 2.18ZM47.27 45.75l-2.495 2.496H41.68l4.043-4.043a1.094 1.094 0 1 1 1.548 1.547ZM55.99 45.75l-2.496 2.496h-3.095l4.043-4.043a1.094 1.094 0 1 1 1.547 1.547Z"/><path fill="#C6C3D8" d="M65.024 64.593h-47.95a1.09 1.09 0 0 1 0-2.18h47.95a1.09 1.09 0 0 1 0 2.18Z"/></g><defs><filter id="filter0_d_69_1891" width="80.208" height="80.208" x=".944" y=".195" color-interpolation-filters="sRGB" filterUnits="userSpaceOnUse"><feFlood flood-opacity="0" result="BackgroundImageFix"/><feColorMatrix in="SourceAlpha" result="hardAlpha" type="matrix" values="0 0 0 0 0 0 0 0 0 0 0 0 0 0 0 0 0 0 127 0"/><feOffset dy=".771"/><feGaussianBlur stdDeviation=".771"/><feComposite in2="hardAlpha" operator="out"/><feColorMatrix type="matrix" values="0 0 0 0 0.219608 0 0 0 0 0.254902 0 0 0 0 0.290196 0 0 0 0.15 0"/><feBlend in2="BackgroundImageFix" mode="normal" result="effect1_dropShadow_69_1891"/><feBlend in="SourceGraphic" in2="effect1_dropShadow_69_1891" mode="normal" result="shape"/></filter></defs></svg>