<svg xmlns="http://www.w3.org/2000/svg" width="57" height="57" fill="none" viewBox="0 0 57 57"><rect width="56" height="56" x=".488" y=".059" fill="#5956E9" rx="28"/><path stroke="#fff" stroke-linecap="round" stroke-linejoin="round" stroke-width="1.5" d="M28.488 38.06c5.523 0 10-4.478 10-10 0-5.524-4.477-10-10-10s-10 4.476-10 10c0 5.522 4.477 10 10 10Z"/><path stroke="#fff" stroke-linecap="round" stroke-linejoin="round" stroke-width="1.5" d="M23.488 25.06c.21.582.775 1 1.44 1 .665 0 1.23-.418 1.438-1m4.244 0c.21.582.774 1 1.44 1 .663 0 1.23-.418 1.438-1m-9 6a4.999 4.999 0 0 0 8 0"/></svg>