<svg xmlns="http://www.w3.org/2000/svg" width="57" height="57" fill="none" viewBox="0 0 57 57"><rect width="56" height="56" x=".979" y=".059" fill="#5956E9" rx="28"/><path stroke="#fff" stroke-linecap="round" stroke-linejoin="round" stroke-width="1.5" d="m29.979 27.06 5-5m1 1-2-2 2.5-1.5 1 1-1.5 2.5Zm-14.976 1.974a3.5 3.5 0 0 1-.79-3.74l1.422 1.422h2v-2l-1.422-1.422a3.5 3.5 0 0 1 4.53 4.53l6.47 6.471a3.5 3.5 0 0 1 4.53 4.53l-1.422-1.423h-2v2l1.422 1.422a3.5 3.5 0 0 1-4.53-4.528l-6.472-6.472a3.5 3.5 0 0 1-3.738-.79Z"/><path stroke="#fff" stroke-linecap="round" stroke-linejoin="round" stroke-width="1.5" d="m29.18 30.56-5.603 5.603a1.349 1.349 0 0 1-1.911 0l-.792-.792a1.35 1.35 0 0 1 0-1.91l5.604-5.605"/></svg>